# xmcd
#
# Track frame offsets:
# 150
# 12584
# 29187
# 45670
# 67635
# 85378
# 100690
# 117477
# 132301
# 148947
# 166210
# 185738
#
# Disc length: 2690 seconds
#
#
# Revision: 0
# Processed by: cddbd v1.5.2PL0 Copyright (c) Steve Scherf et al.
# Submitted via: FreeRIP 2.91 
#
DISCID=ac0a800c
DTITLE=Brian Davis - Get Plowed
DYEAR=2007
DGENRE=Country
TTITLE0=01-That's Country
TTITLE1=02-Like we used to
TTITLE2=03-get plowed
TTITLE3=04-small doses
TTITLE4=05-me and my baby
TTITLE5=06-summerthing
TTITLE6=07-the bottom of it
TTITLE7=08-why should I grow up now
TTITLE8=09-that damn song
TTITLE9=10-anywhere
TTITLE10=11-one good beer
TTITLE11=12-barn burner
EXTD=
EXTT0=
EXTT1=
EXTT2=
EXTT3=
EXTT4=
EXTT5=
EXTT6=
EXTT7=
EXTT8=
EXTT9=
EXTT10=
EXTT11=
PLAYORDER=
